<svg xmlns="http://www.w3.org/2000/svg" viewBox="0 0 136.28 37.333332" height="37.3333" width="136.28"><path d="M62.9765 3.8197c.338 0 .6104-.2776.6104-.6176V.621c0-.345-.274-.621-.611-.621H39.039c-.338 0-.6176.276-.6176.6203V36.711c0 .3437.2796.6208.6176.6208h23.937c.337 0 .6103-.277.6103-.621v-2.5832c0-.3385-.2734-.6146-.6105-.6146H47.495V20.5693h15.4814c.337 0 .6104-.2734.6104-.6078V16.338c0-.3375-.2735-.614-.6106-.614H47.496V3.8197h15.4805" fill="#ffc820"/><path d="M0 36.711c0 .3437.2766.6208.6104.6208h13.116c20.235 0 20.7553-15.807 20.7553-18.6657C34.4817 15.812 33.9615 0 13.7265 0H.6105C.2765 0 0 .276 0 .6203 0 .6375.0036.653.0052.6697.0032.6537 0 .6375 0 .6207v.098M11.0167 33.512H9.06V3.8197h1.9567c4.416 0 14.5328 3.1516 14.5328 14.8464 0 11.698-10.1167 14.846-14.5328 14.846zM120.6625.0005h-23.94c-.3345 0-.612.2766-.612.614v36.1042c0 .3375.2775.6146.612.6146h7.828c.348 0 .6172-.277.6172-.6208l.0104-16.3177v.1755h15.485c.3336 0 .617-.2734.617-.6078v-3.624c0-.338-.284-.614-.617-.614h-15.495l.0105-11.9042h15.4845c.3333 0 .617-.277.617-.6176V.6207c0-.3442-.284-.6207-.6172-.6207M89.7812 33.512H79.1625V.6203C79.1625.276 78.889 0 78.548 0h-7.824c-.3516 0-.6188.276-.6188.6203V36.711c0 .3437.2672.6208.6188.6208h19.0572c.3543 0 .6313-.277.6313-.621v-2.5764c0-.34-.277-.6214-.6313-.6214M135.664 0h-7.8307c-.3385 0-.6145.276-.6276.614v36.1037c.013.337.289.614.6276.614h7.8307c.3373 0 .6173-.277.6173-.6208V.62c0-.3443-.28-.6208-.6173-.6208" fill="#0372dd"/></svg>